<svg width="198" height="198" viewBox="0 0 198 198" fill="none" xmlns="http://www.w3.org/2000/svg">
<circle cx="99" cy="99" r="99" fill="#1C2834"/>
<path d="M38.688 92L38.664 80.864L33.144 90.08H31.752L26.232 81.008V92H23.256V75.2H25.824L32.496 86.336L39.048 75.2H41.616L41.64 92H38.688ZM78.0259 92.24C76.3139 92.24 74.7699 91.872 73.3939 91.136C72.0179 90.384 70.9379 89.352 70.1539 88.04C69.3699 86.712 68.9779 85.232 68.9779 83.6C68.9779 81.968 69.3699 80.496 70.1539 79.184C70.9379 77.856 72.0179 76.824 73.3939 76.088C74.7699 75.336 76.3139 74.96 78.0259 74.96C79.7379 74.96 81.2819 75.336 82.6579 76.088C84.0339 76.824 85.1139 77.848 85.8979 79.16C86.6819 80.472 87.0739 81.952 87.0739 83.6C87.0739 85.248 86.6819 86.728 85.8979 88.04C85.1139 89.352 84.0339 90.384 82.6579 91.136C81.2819 91.872 79.7379 92.24 78.0259 92.24ZM78.0259 89.504C79.1459 89.504 80.1539 89.256 81.0499 88.76C81.9459 88.248 82.6499 87.544 83.1619 86.648C83.6739 85.736 83.9299 84.72 83.9299 83.6C83.9299 82.48 83.6739 81.472 83.1619 80.576C82.6499 79.664 81.9459 78.96 81.0499 78.464C80.1539 77.952 79.1459 77.696 78.0259 77.696C76.9059 77.696 75.8979 77.952 75.0019 78.464C74.1059 78.96 73.4019 79.664 72.8899 80.576C72.3779 81.472 72.1219 82.48 72.1219 83.6C72.1219 84.72 72.3779 85.736 72.8899 86.648C73.4019 87.544 74.1059 88.248 75.0019 88.76C75.8979 89.256 76.9059 89.504 78.0259 89.504ZM122.229 92.24C120.517 92.24 118.973 91.872 117.597 91.136C116.221 90.384 115.141 89.352 114.357 88.04C113.573 86.712 113.181 85.232 113.181 83.6C113.181 81.968 113.573 80.496 114.357 79.184C115.141 77.856 116.221 76.824 117.597 76.088C118.973 75.336 120.517 74.96 122.229 74.96C123.941 74.96 125.485 75.336 126.861 76.088C128.237 76.824 129.317 77.848 130.101 79.16C130.885 80.472 131.277 81.952 131.277 83.6C131.277 85.248 130.885 86.728 130.101 88.04C129.317 89.352 128.237 90.384 126.861 91.136C125.485 91.872 123.941 92.24 122.229 92.24ZM122.229 89.504C123.349 89.504 124.357 89.256 125.253 88.76C126.149 88.248 126.853 87.544 127.365 86.648C127.877 85.736 128.133 84.72 128.133 83.6C128.133 82.48 127.877 81.472 127.365 80.576C126.853 79.664 126.149 78.96 125.253 78.464C124.357 77.952 123.349 77.696 122.229 77.696C121.109 77.696 120.101 77.952 119.205 78.464C118.309 78.96 117.605 79.664 117.093 80.576C116.581 81.472 116.325 82.48 116.325 83.6C116.325 84.72 116.581 85.736 117.093 86.648C117.605 87.544 118.309 88.248 119.205 88.76C120.101 89.256 121.109 89.504 122.229 89.504ZM173.512 75.2V92H170.944L161.68 80.624V92H158.584V75.2H161.152L170.416 86.576V75.2H173.512Z" fill="white"/>
<path d="M20.912 124.096C20.08 124.096 19.28 123.963 18.512 123.696C17.7547 123.429 17.168 123.077 16.752 122.64L17.216 121.728C17.6213 122.133 18.16 122.464 18.832 122.72C19.504 122.965 20.1973 123.088 20.912 123.088C21.9147 123.088 22.6667 122.907 23.168 122.544C23.6693 122.171 23.92 121.691 23.92 121.104C23.92 120.656 23.7813 120.299 23.504 120.032C23.2373 119.765 22.9067 119.563 22.512 119.424C22.1173 119.275 21.568 119.115 20.864 118.944C20.0213 118.731 19.3493 118.528 18.848 118.336C18.3467 118.133 17.9147 117.829 17.552 117.424C17.2 117.019 17.024 116.469 17.024 115.776C17.024 115.211 17.1733 114.699 17.472 114.24C17.7707 113.771 18.2293 113.397 18.848 113.12C19.4667 112.843 20.2347 112.704 21.152 112.704C21.792 112.704 22.416 112.795 23.024 112.976C23.6427 113.147 24.176 113.387 24.624 113.696L24.224 114.64C23.7547 114.331 23.2533 114.101 22.72 113.952C22.1867 113.792 21.664 113.712 21.152 113.712C20.1707 113.712 19.4293 113.904 18.928 114.288C18.4373 114.661 18.192 115.147 18.192 115.744C18.192 116.192 18.3253 116.555 18.592 116.832C18.8693 117.099 19.2107 117.307 19.616 117.456C20.032 117.595 20.5867 117.749 21.28 117.92C22.1013 118.123 22.7627 118.325 23.264 118.528C23.776 118.72 24.208 119.019 24.56 119.424C24.912 119.819 25.088 120.357 25.088 121.04C25.088 121.605 24.9333 122.123 24.624 122.592C24.3253 123.051 23.8613 123.419 23.232 123.696C22.6027 123.963 21.8293 124.096 20.912 124.096ZM45.6875 113.824H41.7515V112.8H50.8075V113.824H46.8715V124H45.6875V113.824ZM75.1605 121.008H68.9205L67.5765 124H66.3445L71.4645 112.8H72.6325L77.7525 124H76.5045L75.1605 121.008ZM74.7285 120.048L72.0405 114.032L69.3525 120.048H74.7285ZM97.2188 113.824H93.2828V112.8H102.339V113.824H98.4028V124H97.2188V113.824ZM120.23 112.8H121.414V124H120.23V112.8ZM145.954 124.096C144.845 124.096 143.837 123.851 142.93 123.36C142.034 122.859 141.33 122.176 140.818 121.312C140.317 120.448 140.066 119.477 140.066 118.4C140.066 117.323 140.317 116.352 140.818 115.488C141.33 114.624 142.034 113.947 142.93 113.456C143.837 112.955 144.845 112.704 145.954 112.704C147.064 112.704 148.061 112.949 148.946 113.44C149.842 113.931 150.546 114.613 151.058 115.488C151.57 116.352 151.826 117.323 151.826 118.4C151.826 119.477 151.57 120.453 151.058 121.328C150.546 122.192 149.842 122.869 148.946 123.36C148.061 123.851 147.064 124.096 145.954 124.096ZM145.954 123.04C146.84 123.04 147.64 122.843 148.354 122.448C149.069 122.043 149.629 121.488 150.034 120.784C150.44 120.069 150.642 119.275 150.642 118.4C150.642 117.525 150.44 116.736 150.034 116.032C149.629 115.317 149.069 114.763 148.354 114.368C147.64 113.963 146.84 113.76 145.954 113.76C145.069 113.76 144.264 113.963 143.538 114.368C142.824 114.763 142.258 115.317 141.842 116.032C141.437 116.736 141.234 117.525 141.234 118.4C141.234 119.275 141.437 120.069 141.842 120.784C142.258 121.488 142.824 122.043 143.538 122.448C144.264 122.843 145.069 123.04 145.954 123.04ZM179.84 112.8V124H178.864L171.664 114.912V124H170.48V112.8H171.456L178.672 121.888V112.8H179.84Z" fill="white"/>
</svg>
